<?xml version="1.0" encoding="UTF-8" standalone="no"?>
<svg
   xmlns:dc="http://purl.org/dc/elements/1.1/"
   xmlns:cc="http://creativecommons.org/ns#"
   xmlns:rdf="http://www.w3.org/1999/02/22-rdf-syntax-ns#"
   xmlns:svg="http://www.w3.org/2000/svg"
   xmlns="http://www.w3.org/2000/svg"
   xmlns:sodipodi="http://sodipodi.sourceforge.net/DTD/sodipodi-0.dtd"
   xmlns:inkscape="http://www.inkscape.org/namespaces/inkscape"
   version="1.2"
   viewBox="0 0 4820 4820"
   preserveAspectRatio="xMidYMid"
   clip-path="url(#presentation_clip_path)"
   xml:space="preserve"
   id="svg2"
   inkscape:version="0.48.3.1 r9886"
   width="100%"
   height="100%"
   sodipodi:docname="ngraph.svg"
   style="fill-rule:evenodd;stroke-width:28.22200012;stroke-linejoin:round"
   inkscape:export-filename="/home/elgin/Desktop/ngraph.png"
   inkscape:export-xdpi="11.2"
   inkscape:export-ydpi="11.2"><metadata
   id="metadata81"><rdf:RDF><cc:Work
       rdf:about=""><dc:format>image/svg+xml</dc:format><dc:type
         rdf:resource="http://purl.org/dc/dcmitype/StillImage" /><dc:title /></cc:Work></rdf:RDF></metadata><sodipodi:namedview
   pagecolor="#ffffff"
   bordercolor="#666666"
   borderopacity="1"
   objecttolerance="10"
   gridtolerance="10"
   guidetolerance="10"
   inkscape:pageopacity="0"
   inkscape:pageshadow="2"
   inkscape:window-width="1680"
   inkscape:window-height="1000"
   id="namedview79"
   showgrid="false"
   inkscape:zoom="0.04"
   inkscape:cx="2786.3205"
   inkscape:cy="2380.9043"
   inkscape:window-x="0"
   inkscape:window-y="0"
   inkscape:window-maximized="1"
   inkscape:current-layer="id1"
   fit-margin-top="240"
   fit-margin-right="240"
   fit-margin-bottom="240"
   fit-margin-left="240" />
 <defs
   id="defs4">
  <clipPath
   id="presentation_clip_path"
   clipPathUnits="userSpaceOnUse">
   <rect
   x="0"
   y="0"
   width="21000"
   height="29700"
   id="rect7" />
  </clipPath>
 
   
  
   
  
   
  
   
  
   
  
   
  
   
  
    
    
   
    
    
   
    
    
   
    
    
    
   
    
    
    
   
    
    
    
   
    
    
    
   </defs>
 <g
   id="id2"
   class="Master_Slide"
   clip-path="url(#presentation_clip_path)"
   transform="translate(-13377,-5989.5)">
  <g
   id="bg-id2"
   visibility="visible"
   class="Background"
   style="visibility:visible">
   <rect
   x="0"
   y="0"
   width="21000"
   height="29700"
   id="rect11"
   style="fill:none;stroke:none" />
  </g>
  <g
   id="bo-id2"
   visibility="visible"
   class="BackgroundObjects"
   style="visibility:visible" />
 </g>
 <g
   id="id1"
   class="Slide"
   visibility="visible"
   clip-path="url(#presentation_clip_path)"
   style="visibility:visible"
   transform="translate(-13377,-5989.5)">
  
  
  
  
  
  
  
 <path
   d="m 14387,9149.5 0,-976"
   id="path59-9"
   inkscape:connector-curvature="0"
   style="fill:none;stroke:#333333;stroke-width:240;stroke-linecap:round;stroke-miterlimit:4;stroke-dasharray:none;marker-end:none" /><path
   d="m 14635,8167.5 -222,-497 -10,-15 -15,-6 -17,6 -10,13 -222,499 -2,7 0,4 2,10 6,10 9,7 10,2 446,0 10,-2 11,-7 4,-10 2,-10 0,-4 -2,-7 z"
   id="path61-3"
   inkscape:connector-curvature="0"
   style="fill:#333333;stroke:#333333;stroke-width:120;stroke-miterlimit:4;stroke-opacity:1;stroke-dasharray:none" /><path
   d="m 14847,7459.5 1509,1509"
   id="path67-7"
   inkscape:connector-curvature="0"
   style="fill:none;stroke:#333333;stroke-width:240;stroke-linecap:round;stroke-miterlimit:4;stroke-dasharray:none" /><path
   d="m 16185,9148.5 509,195 18,3 14,-6 8,-16 -2,-17 -196,-509 -3,-7 -3,-3 -9,-5 -12,-3 -10,1 -9,6 -315,315 -6,9 -3,12 4,10 6,9 3,3 6,3 z"
   id="path69-2"
   inkscape:connector-curvature="0"
   style="fill:#333333;stroke:#333333;stroke-width:120;stroke-miterlimit:4;stroke-opacity:1;stroke-dasharray:none" /><path
   d="m 17187,9149.5 0,-976"
   id="path75-1"
   inkscape:connector-curvature="0"
   style="fill:none;stroke:#333333;stroke-width:240;stroke-linecap:round;stroke-miterlimit:4;stroke-dasharray:none" /><path
   d="m 17435,8167.5 -222,-497 -10,-15 -15,-6 -17,6 -10,13 -222,499 -2,7 0,4 2,10 6,10 9,7 10,2 446,0 10,-2 11,-7 4,-10 2,-10 0,-4 -2,-7 z"
   id="path77-3"
   inkscape:connector-curvature="0"
   style="fill:#333333;stroke:#333333;stroke-width:120;stroke-miterlimit:4;stroke-opacity:1;stroke-dasharray:none" /><path
   d="m 14387,9149.5 c 368,0 650,282 650,650 0,368 -282,650 -650,650 -368,0 -650,-282 -650,-650 0,-368 282,-650 650,-650 z m -650,0 0,0 z m 1301,1301 0,0 z"
   id="path19-2"
   inkscape:connector-curvature="0"
   style="fill:#966432;fill-opacity:1;stroke:#333333;stroke-width:240;stroke-miterlimit:4;stroke-opacity:1;stroke-dasharray:none" /><path
   d="m 14387,6349.5 c 368,0 650,282 650,650 0,368 -282,650 -650,650 -368,0 -650,-282 -650,-650 0,-368 282,-650 650,-650 z m -650,0 0,0 z m 1301,1301 0,0 z"
   id="path29-1"
   inkscape:connector-curvature="0"
   style="fill:#0d884c;fill-opacity:1;stroke:#333333;stroke-width:240;stroke-miterlimit:4;stroke-opacity:1;stroke-dasharray:none" /><path
   d="m 17187,6349.5 c 368,0 650,282 650,650 0,368 -282,650 -650,650 -368,0 -650,-282 -650,-650 0,-368 282,-650 650,-650 z m -650,0 0,0 z m 1301,1301 0,0 z"
   id="path39-5"
   inkscape:connector-curvature="0"
   style="fill:#c8b04c;fill-opacity:1;stroke:#333333;stroke-width:240;stroke-miterlimit:4;stroke-opacity:1;stroke-dasharray:none" /><path
   d="m 17187,9149.5 c 368,0 650,282 650,650 0,368 -282,650 -650,650 -368,0 -650,-282 -650,-650 0,-368 282,-650 650,-650 z m -650,0 0,0 z m 1301,1301 0,0 z"
   id="path49-0"
   inkscape:connector-curvature="0"
   style="fill:#4c88c8;fill-opacity:1;stroke:#333333;stroke-width:240;stroke-miterlimit:4;stroke-opacity:1;stroke-dasharray:none" /></g>
</svg>