<?xml version="1.0" encoding="UTF-8" standalone="no"?>
<!-- Created with Inkscape (http://www.inkscape.org/) -->

<svg
   xmlns:dc="http://purl.org/dc/elements/1.1/"
   xmlns:cc="http://creativecommons.org/ns#"
   xmlns:rdf="http://www.w3.org/1999/02/22-rdf-syntax-ns#"
   xmlns:svg="http://www.w3.org/2000/svg"
   xmlns="http://www.w3.org/2000/svg"
   xmlns:sodipodi="http://sodipodi.sourceforge.net/DTD/sodipodi-0.dtd"
   xmlns:inkscape="http://www.inkscape.org/namespaces/inkscape"
   width="950.05865"
   height="238.63377"
   id="svg2"
   version="1.1"
   inkscape:version="0.48.3.1 r9886"
   sodipodi:docname="nigetech.svg"
   inkscape:export-filename="/home/elgin/Dropbox/pics/ngraph/nigetech.png"
   inkscape:export-xdpi="118.59"
   inkscape:export-ydpi="118.59">
  <defs
     id="defs4">
    <clipPath
       clipPathUnits="userSpaceOnUse"
       id="presentation_clip_path">
      <rect
         id="rect7"
         height="29700"
         width="21000"
         y="0"
         x="0" />
    </clipPath>
  </defs>
  <sodipodi:namedview
     id="base"
     pagecolor="#ffffff"
     bordercolor="#666666"
     borderopacity="1.0"
     inkscape:pageopacity="0.0"
     inkscape:pageshadow="2"
     inkscape:zoom="0.70710678"
     inkscape:cx="217.67136"
     inkscape:cy="36.345792"
     inkscape:document-units="px"
     inkscape:current-layer="layer1"
     showgrid="false"
     fit-margin-top="30"
     fit-margin-right="30"
     fit-margin-left="30"
     fit-margin-bottom="30"
     inkscape:window-width="1680"
     inkscape:window-height="1000"
     inkscape:window-x="0"
     inkscape:window-y="0"
     inkscape:window-maximized="1" />
  <metadata
     id="metadata7">
    <rdf:RDF>
      <cc:Work
         rdf:about="">
        <dc:format>image/svg+xml</dc:format>
        <dc:type
           rdf:resource="http://purl.org/dc/dcmitype/StillImage" />
        <dc:title />
      </cc:Work>
    </rdf:RDF>
  </metadata>
  <g
     inkscape:label="Layer 1"
     inkscape:groupmode="layer"
     id="layer1"
     transform="translate(-332.99273,-481.92193)">
    <text
       xml:space="preserve"
       style="font-size:40px;font-style:normal;font-weight:normal;line-height:125%;letter-spacing:0px;word-spacing:0px;fill:#000000;fill-opacity:1;stroke:none;font-family:Sans"
       x="383.04251"
       y="313.30447"
       id="text2989"
       sodipodi:linespacing="125%"><tspan
         sodipodi:role="line"
         id="tspan2991"
         x="383.04251"
         y="313.30447" /></text>
    <g
       style="fill-rule:evenodd;stroke-width:28.22200012;stroke-linejoin:round"
       id="id2"
       class="Master_Slide"
       clip-path="url(#presentation_clip_path)"
       transform="translate(-10321.589,-14726.944)">
      <g
         id="bg-id2"
         visibility="visible"
         class="Background"
         style="visibility:visible">
        <rect
           x="0"
           y="0"
           width="21000"
           height="29700"
           id="rect11"
           style="fill:none;stroke:none" />
      </g>
      <g
         id="bo-id2"
         visibility="visible"
         class="BackgroundObjects"
         style="visibility:visible" />
    </g>
    <g
       id="id1"
       class="Slide"
       visibility="visible"
       clip-path="url(#presentation_clip_path)"
       style="fill-rule:evenodd;stroke-width:28.22200012;stroke-linejoin:round;visibility:visible"
       transform="translate(-10321.589,-14726.944)">
      <path
         d="m 14387,9149.5 0,-976"
         id="path59-9"
         inkscape:connector-curvature="0"
         style="fill:none;stroke:#333333;stroke-width:240;stroke-linecap:round;stroke-miterlimit:4;stroke-dasharray:none;marker-end:none" />
      <path
         d="m 14635,8167.5 -222,-497 -10,-15 -15,-6 -17,6 -10,13 -222,499 -2,7 0,4 2,10 6,10 9,7 10,2 446,0 10,-2 11,-7 4,-10 2,-10 0,-4 -2,-7 z"
         id="path61-3"
         inkscape:connector-curvature="0"
         style="fill:#333333;stroke:#333333;stroke-width:120;stroke-miterlimit:4;stroke-opacity:1;stroke-dasharray:none" />
      <path
         d="m 14847,7459.5 1509,1509"
         id="path67-7"
         inkscape:connector-curvature="0"
         style="fill:none;stroke:#333333;stroke-width:240;stroke-linecap:round;stroke-miterlimit:4;stroke-dasharray:none" />
      <path
         d="m 16185,9148.5 509,195 18,3 14,-6 8,-16 -2,-17 -196,-509 -3,-7 -3,-3 -9,-5 -12,-3 -10,1 -9,6 -315,315 -6,9 -3,12 4,10 6,9 3,3 6,3 z"
         id="path69-2"
         inkscape:connector-curvature="0"
         style="fill:#333333;stroke:#333333;stroke-width:120;stroke-miterlimit:4;stroke-opacity:1;stroke-dasharray:none" />
      <path
         d="m 17187,9149.5 0,-976"
         id="path75-1"
         inkscape:connector-curvature="0"
         style="fill:none;stroke:#333333;stroke-width:240;stroke-linecap:round;stroke-miterlimit:4;stroke-dasharray:none" />
      <path
         d="m 17435,8167.5 -222,-497 -10,-15 -15,-6 -17,6 -10,13 -222,499 -2,7 0,4 2,10 6,10 9,7 10,2 446,0 10,-2 11,-7 4,-10 2,-10 0,-4 -2,-7 z"
         id="path77-3"
         inkscape:connector-curvature="0"
         style="fill:#333333;stroke:#333333;stroke-width:120;stroke-miterlimit:4;stroke-opacity:1;stroke-dasharray:none" />
      <path
         d="m 14387,9149.5 c 368,0 650,282 650,650 0,368 -282,650 -650,650 -368,0 -650,-282 -650,-650 0,-368 282,-650 650,-650 z m -650,0 0,0 z m 1301,1301 0,0 z"
         id="path19-2"
         inkscape:connector-curvature="0"
         style="fill:#4c884c;fill-opacity:1;stroke:#333333;stroke-width:240;stroke-miterlimit:4;stroke-opacity:1;stroke-dasharray:none" />
      <path
         d="m 14387,6349.5 c 368,0 650,282 650,650 0,368 -282,650 -650,650 -368,0 -650,-282 -650,-650 0,-368 282,-650 650,-650 z m -650,0 0,0 z m 1301,1301 0,0 z"
         id="path29-1"
         inkscape:connector-curvature="0"
         style="fill:#4c884c;fill-opacity:1;stroke:#333333;stroke-width:240;stroke-miterlimit:4;stroke-opacity:1;stroke-dasharray:none" />
      <path
         d="m 17187,6349.5 c 368,0 650,282 650,650 0,368 -282,650 -650,650 -368,0 -650,-282 -650,-650 0,-368 282,-650 650,-650 z m -650,0 0,0 z m 1301,1301 0,0 z"
         id="path39-5"
         inkscape:connector-curvature="0"
         style="fill:#4c884c;fill-opacity:1;stroke:#333333;stroke-width:240;stroke-miterlimit:4;stroke-opacity:1;stroke-dasharray:none" />
      <path
         d="m 17187,9149.5 c 368,0 650,282 650,650 0,368 -282,650 -650,650 -368,0 -650,-282 -650,-650 0,-368 282,-650 650,-650 z m -650,0 0,0 z m 1301,1301 0,0 z"
         id="path49-0"
         inkscape:connector-curvature="0"
         style="fill:#4c884c;fill-opacity:1;stroke:#333333;stroke-width:240;stroke-miterlimit:4;stroke-opacity:1;stroke-dasharray:none" />
    </g>
    <text
       xml:space="preserve"
       style="font-size:77.02973175px;font-style:normal;font-weight:normal;line-height:125%;letter-spacing:0px;word-spacing:0px;fill:#0d884c;fill-opacity:1;stroke:#0d884c;stroke-width:6;stroke-linejoin:round;stroke-miterlimit:4;stroke-opacity:1;stroke-dasharray:none;font-family:Sans"
       x="571.4729"
       y="625.92682"
       id="text2985"
       sodipodi:linespacing="125%"
       inkscape:export-filename="/home/elgin/Dropbox/Work/NSTech/www/nigetech.400x80.png"
       inkscape:export-xdpi="40.446774"
       inkscape:export-ydpi="40.446774"><tspan
         sodipodi:role="line"
         id="tspan2987"
         x="571.4729"
         y="625.92682"
         style="font-size:138.65351868px;font-style:normal;font-variant:normal;font-weight:normal;font-stretch:normal;letter-spacing:-2.43999958px;fill:#0d884c;fill-opacity:1;stroke:#0d884c;stroke-width:6;stroke-linejoin:round;stroke-miterlimit:4;stroke-opacity:1;stroke-dasharray:none;font-family:Andika;-inkscape-font-specification:Andika">Nigel Small</tspan></text>
    <text
       xml:space="preserve"
       style="font-size:53.06679916px;font-style:normal;font-weight:normal;line-height:125%;letter-spacing:0px;word-spacing:0px;fill:#333333;fill-opacity:1;stroke:#333333;stroke-width:1.84134543;stroke-linecap:butt;stroke-linejoin:round;stroke-miterlimit:4;stroke-opacity:1;stroke-dasharray:none;font-family:Sans"
       x="787.57184"
       y="677.40405"
       id="text3761"
       sodipodi:linespacing="125%"
       inkscape:export-filename="/home/elgin/Dropbox/Work/NSTech/www/nigetech.400x80.png"
       inkscape:export-xdpi="40.446774"
       inkscape:export-ydpi="40.446774"><tspan
         sodipodi:role="line"
         id="tspan3763"
         x="787.57184"
         y="677.40405"
         style="font-style:normal;font-variant:normal;font-weight:normal;font-stretch:normal;letter-spacing:16.38682747px;fill:#333333;fill-opacity:1;stroke:#333333;stroke-width:1.84134543;stroke-linecap:butt;stroke-linejoin:round;stroke-miterlimit:4;stroke-opacity:1;stroke-dasharray:none;font-family:Courier 10 Pitch;-inkscape-font-specification:Courier 10 Pitch"
         dx="0">TECHNOLOGY</tspan></text>
    <path
       d="m 394.67866,632.11198 0,-40.17489"
       id="path59-9-4"
       inkscape:connector-curvature="0"
       style="fill:none;stroke:#333333;stroke-width:9.87906933;stroke-linecap:round;stroke-linejoin:round;stroke-miterlimit:4;stroke-dasharray:none;marker-end:none;visibility:visible" />
    <path
       d="m 404.88703,591.69012 -9.13814,-20.45791 -0.41163,-0.61745 -0.61744,-0.24697 -0.69977,0.24697 -0.41163,0.53512 -9.13814,20.54024 -0.0823,0.28813 0,0.16466 0.0823,0.41162 0.24698,0.41163 0.37047,0.28814 0.41162,0.0823 18.35861,0 0.41163,-0.0823 0.45279,-0.28814 0.16465,-0.41163 0.0823,-0.41162 0,-0.16466 -0.0823,-0.28813 z"
       id="path61-3-3"
       inkscape:connector-curvature="0"
       style="fill:#333333;fill-rule:evenodd;stroke:#333333;stroke-width:4.93953466;stroke-linejoin:round;stroke-miterlimit:4;stroke-opacity:1;stroke-dasharray:none;visibility:visible" />
    <path
       d="m 413.61354,562.54686 62.11465,62.11465"
       id="path67-7-8"
       inkscape:connector-curvature="0"
       style="fill:none;stroke:#333333;stroke-width:9.87906933;stroke-linecap:round;stroke-linejoin:round;stroke-miterlimit:4;stroke-dasharray:none;visibility:visible" />
    <path
       d="m 468.68936,632.07082 20.95186,8.02674 0.74093,0.12348 0.57627,-0.24697 0.32931,-0.65861 -0.0823,-0.69977 -8.06791,-20.95185 -0.12349,-0.28815 -0.12349,-0.12348 -0.37046,-0.20582 -0.49396,-0.12348 -0.41163,0.0411 -0.37046,0.24698 -12.96628,12.96628 -0.24698,0.37046 -0.12349,0.49396 0.16466,0.41163 0.24697,0.37046 0.12349,0.12349 0.24698,0.12349 z"
       id="path69-2-6"
       inkscape:connector-curvature="0"
       style="fill:#333333;fill-rule:evenodd;stroke:#333333;stroke-width:4.93953466;stroke-linejoin:round;stroke-miterlimit:4;stroke-opacity:1;stroke-dasharray:none;visibility:visible" />
    <path
       d="m 509.93448,632.11198 0,-40.17489"
       id="path75-1-4"
       inkscape:connector-curvature="0"
       style="fill:none;stroke:#333333;stroke-width:9.87906933;stroke-linecap:round;stroke-linejoin:round;stroke-miterlimit:4;stroke-dasharray:none;visibility:visible" />
    <path
       d="m 520.14284,591.69012 -9.13813,-20.45791 -0.41163,-0.61745 -0.61744,-0.24697 -0.69977,0.24697 -0.41163,0.53512 -9.13814,20.54024 -0.0823,0.28813 0,0.16466 0.0823,0.41162 0.24698,0.41163 0.37047,0.28814 0.41162,0.0823 18.35861,0 0.41163,-0.0823 0.45279,-0.28814 0.16464,-0.41163 0.0823,-0.41162 0,-0.16466 -0.0823,-0.28813 z"
       id="path77-3-9"
       inkscape:connector-curvature="0"
       style="fill:#333333;fill-rule:evenodd;stroke:#333333;stroke-width:4.93953466;stroke-linejoin:round;stroke-miterlimit:4;stroke-opacity:1;stroke-dasharray:none;visibility:visible" />
    <path
       d="m 394.67866,632.11198 c 15.1479,0 26.75581,11.6079 26.75581,26.75581 0,15.14791 -11.60791,26.75582 -26.75581,26.75582 -15.14791,0 -26.75582,-11.60791 -26.75582,-26.75582 0,-15.14791 11.60791,-26.75581 26.75582,-26.75581 z m -26.75582,0 0,0 z m 53.55279,53.55278 0,0 z"
       id="path19-2-0"
       inkscape:connector-curvature="0"
       style="fill:#966432;fill-opacity:1;fill-rule:evenodd;stroke:#333333;stroke-width:9.87906933000000009;stroke-linejoin:round;stroke-miterlimit:4;stroke-opacity:1;stroke-dasharray:none;visibility:visible" />
    <path
       d="m 394.67866,516.85616 c 15.1479,0 26.75581,11.60791 26.75581,26.75581 0,15.14791 -11.60791,26.75582 -26.75581,26.75582 -15.14791,0 -26.75582,-11.60791 -26.75582,-26.75582 0,-15.1479 11.60791,-26.75581 26.75582,-26.75581 z m -26.75582,0 0,0 z m 53.55279,53.55279 0,0 z"
       id="path29-1-0"
       inkscape:connector-curvature="0"
       style="fill:#0d884c;fill-opacity:1;fill-rule:evenodd;stroke:#333333;stroke-width:9.87906933;stroke-linejoin:round;stroke-miterlimit:4;stroke-opacity:1;stroke-dasharray:none;visibility:visible" />
    <path
       d="m 509.93448,516.85616 c 15.1479,0 26.75581,11.60791 26.75581,26.75581 0,15.14791 -11.60791,26.75582 -26.75581,26.75582 -15.14791,0 -26.75582,-11.60791 -26.75582,-26.75582 0,-15.1479 11.60791,-26.75581 26.75582,-26.75581 z m -26.75582,0 0,0 z m 53.55279,53.55279 0,0 z"
       id="path39-5-6"
       inkscape:connector-curvature="0"
       style="fill:#c8b04c;fill-opacity:1;fill-rule:evenodd;stroke:#333333;stroke-width:9.87906933000000009;stroke-linejoin:round;stroke-miterlimit:4;stroke-opacity:1;stroke-dasharray:none;visibility:visible" />
    <path
       d="m 509.93448,632.11198 c 15.1479,0 26.75581,11.6079 26.75581,26.75581 0,15.14791 -11.60791,26.75582 -26.75581,26.75582 -15.14791,0 -26.75582,-11.60791 -26.75582,-26.75582 0,-15.14791 11.60791,-26.75581 26.75582,-26.75581 z m -26.75582,0 0,0 z m 53.55279,53.55278 0,0 z"
       id="path49-0-0"
       inkscape:connector-curvature="0"
       style="fill:#4c88c8;fill-opacity:1;fill-rule:evenodd;stroke:#333333;stroke-width:9.87906933000000009;stroke-linejoin:round;stroke-miterlimit:4;stroke-opacity:1;stroke-dasharray:none;visibility:visible" />
  </g>
</svg>
